<?xml version="1.0" encoding="utf-8"?>
<!-- Generator: Adobe Illustrator 24.1.2, SVG Export Plug-In . SVG Version: 6.00 Build 0)  -->
<svg version="1.1" id="katman_1" xmlns="http://www.w3.org/2000/svg" xmlns:xlink="http://www.w3.org/1999/xlink" x="0px" y="0px"
	 viewBox="0 0 5600 800" style="enable-background:new 0 0 5600 800;" xml:space="preserve">
<style type="text/css">
	.st0{fill:#2684FF;}
	.st1{fill-rule:evenodd;clip-rule:evenodd;fill:url(#SVGID_1_);}
	.st2{fill-rule:evenodd;clip-rule:evenodd;fill:url(#SVGID_2_);}
	.st3{enable-background:new    ;}
</style>
<path class="st0" d="M782.2,380.4L470.7,79.2L440.6,50L206.1,276.7L98.9,380.4c-11.2,10.8-11.2,28.4,0,39.2l214.2,207.2L440.6,750
	L675,523.3l3.6-3.5l103.6-100.2C793.3,408.8,793.3,391.2,782.2,380.4z M440.6,503.5L333.6,400l107-103.5l107,103.5L440.6,503.5z"/>
<linearGradient id="SVGID_1_" gradientUnits="userSpaceOnUse" x1="4127.8501" y1="788.1847" x2="4120.7104" y2="785.0677" gradientTransform="matrix(25 0 0 -25 -102768 19912)">
	<stop  offset="0.18" style="stop-color:#0052CC"/>
	<stop  offset="1" style="stop-color:#2684FF"/>
</linearGradient>
<path class="st1" d="M440.6,296.5c-70.1-67.8-70.4-177.5-0.8-245.7L205.6,277.2L333,400.5L440.6,296.5z"/>
<linearGradient id="SVGID_2_" gradientUnits="userSpaceOnUse" x1="4128.9023" y1="772.7952" x2="4136.0288" y2="775.8902" gradientTransform="matrix(25 0 0 -25 -102768 19912)">
	<stop  offset="0.18" style="stop-color:#0052CC"/>
	<stop  offset="1" style="stop-color:#2684FF"/>
</linearGradient>
<path class="st2" d="M547.8,399.7L440.6,503.5c33.8,32.7,52.8,77,52.8,123.3c0,46.2-19,90.6-52.8,123.3l234.7-227L547.8,399.7z"/>
<g class="st3">
	<path class="st0" d="M1634.5,387.6c-7.8,14.5-20.4,26.4-37.1,35.4c-16.8,9-38,13.4-63.8,13.4h-52.4v119.9h-62.7V244h115
		c24.2,0,44.8,4.3,61.8,12.5c17,8.3,29.8,19.9,38.3,34.5s12.8,31.1,12.8,49.7C1646.3,357.2,1642.3,372.9,1634.5,387.6z M1569.4,374
		c8.3-7.8,12.5-19,12.5-33.3c0-30.4-17-45.6-51-45.6h-49.7v90.8h49.7C1548.1,385.9,1560.9,381.8,1569.4,374z"/>
	<path class="st0" d="M1784.8,316c13-7.4,27.7-11.2,44.5-11.2v65.8h-16.6c-19.7,0-34.5,4.7-44.5,13.9s-15,25.3-15,48.3v123.5h-62.7
		V308.4h62.7v38.5C1761.3,333.7,1771.9,323.4,1784.8,316z"/>
	<path class="st0" d="M1917.1,544.5c-19-10.5-34-25.5-45-45c-11-19.5-16.3-41.8-16.3-67.1s5.6-47.7,16.8-67.1
		c11.2-19.5,26.4-34.5,45.9-45c19.5-10.5,40.9-15.9,64.9-15.9s45.4,5.4,64.9,15.9c19.5,10.5,34.7,25.5,45.9,45
		c11.2,19.5,16.8,41.8,16.8,67.1s-5.8,47.7-17.2,67.1c-11.4,19.5-27.1,34.5-46.5,45c-19.5,10.5-41.4,15.9-65.6,15.9
		C1957.6,560.4,1936.1,555,1917.1,544.5z M2013.5,497.5c10.1-5.6,17.9-13.9,23.9-24.8c6-11,9-24.4,9-40.3c0-23.5-6.3-41.6-18.6-54.4
		c-12.3-12.8-27.5-19-45.4-19c-17.9,0-32.9,6.3-45,19c-12.1,12.8-18.1,30.9-18.1,54.4s5.8,41.6,17.7,54.4c11.9,12.8,26.6,19,44.5,19
		C1992.7,505.8,2003.4,502.9,2013.5,497.5z"/>
	<path class="st0" d="M2219.6,597.1c0,27.5-6.7,47.2-20.4,59.3c-13.6,12.1-33.1,18.1-58.4,18.1h-27.7v-53.3h17.9
		c9.6,0,16.3-1.8,20.1-5.6c3.8-3.8,5.8-9.8,5.8-18.1V308.4h62.7V597.1z M2160.7,268.4c-7.4-6.9-11-15.7-11-26.2
		c0-10.5,3.6-19.2,11-26.2c7.4-6.9,16.6-10.5,28-10.5c11,0,20.1,3.6,27.3,10.5c7.2,6.9,10.7,15.7,10.7,26.2
		c0,10.5-3.6,19.2-10.7,26.2c-7.2,6.9-16.3,10.5-27.3,10.5C2177.3,278.9,2167.9,275.3,2160.7,268.4z"/>
	<path class="st0" d="M2510,451.2h-181.2c1.6,17.9,7.8,32,18.8,42.1c11,10.1,24.6,15.2,40.7,15.2c23.3,0,39.8-10.1,49.7-30h67.6
		c-7.2,23.9-20.8,43.4-41.2,58.8c-20.4,15.4-45.2,23-74.7,23c-23.9,0-45.2-5.4-64.2-15.9c-19-10.5-33.8-25.5-44.3-45
		c-10.5-19.5-15.9-41.8-15.9-67.1c0-25.7,5.1-48.1,15.7-67.6c10.5-19.5,25.1-34.2,43.9-44.8c18.8-10.5,40.5-15.7,64.9-15.7
		c23.5,0,44.8,5.1,63.3,15.2c18.6,10.1,33.1,24.6,43.4,43.2c10.3,18.6,15.4,40.1,15.4,64.2C2511.8,436,2511.1,444,2510,451.2z
		 M2446.9,409.1c-0.2-16.1-6-29.1-17.5-38.7c-11.4-9.6-25.3-14.5-41.6-14.5c-15.4,0-28.6,4.7-39.2,14.1c-10.5,9.4-17,22.4-19.5,39.2
		H2446.9z"/>
	<path class="st0" d="M2912.3,244l-105.6,203.6v108.7h-62.7V447.6L2638,244h70.7l67.1,142.8l66.7-142.8H2912.3z"/>
	<path class="st0" d="M2994.2,544.5c-19-10.5-34-25.5-45-45c-11-19.5-16.3-41.8-16.3-67.1s5.6-47.7,16.8-67.1
		c11.2-19.5,26.4-34.5,45.9-45c19.5-10.5,40.9-15.9,64.9-15.9s45.4,5.4,64.9,15.9c19.5,10.5,34.7,25.5,45.9,45
		c11.2,19.5,16.8,41.8,16.8,67.1s-5.8,47.7-17.2,67.1s-27.1,34.5-46.5,45c-19.5,10.5-41.4,15.9-65.6,15.9
		C3034.7,560.4,3013.2,555,2994.2,544.5z M3000.5,267.3c-5.6-5.6-8.5-12.8-8.5-21c0-8.3,2.9-15.4,8.5-21.3s12.8-8.7,21-8.7
		s15.4,2.9,21.3,8.7c5.8,5.8,8.7,13,8.7,21.3s-2.9,15.4-8.7,21c-5.8,5.6-13,8.5-21.3,8.5C3013,275.8,3006.1,272.9,3000.5,267.3z
		 M3090.7,497.5c10.1-5.6,17.9-13.9,23.9-24.8s9-24.4,9-40.3c0-23.5-6.3-41.6-18.6-54.4c-12.3-12.8-27.5-19-45.4-19
		c-17.9,0-32.9,6.3-45,19c-12.1,12.8-18.1,30.9-18.1,54.4s5.8,41.6,17.7,54.4c11.9,12.8,26.6,19,44.5,19
		C3069.8,505.8,3080.6,502.9,3090.7,497.5z M3083.3,267.3c-5.6-5.6-8.5-12.8-8.5-21c0-8.3,2.9-15.4,8.5-21.3
		c5.6-5.8,12.8-8.7,21-8.7c8.3,0,15.4,2.9,21.3,8.7c5.8,5.8,8.7,13,8.7,21.3s-2.9,15.4-8.7,21c-5.8,5.6-13,8.5-21.3,8.5
		C3095.8,275.8,3088.9,272.9,3083.3,267.3z"/>
	<path class="st0" d="M3443.1,332.8c18.1,18.6,27.3,44.8,27.3,78.1v145.4h-62.7V419.4c0-19.7-4.9-34.9-14.8-45.4
		c-9.8-10.5-23.3-15.9-40.3-15.9c-17.2,0-30.9,5.4-40.9,15.9s-15,25.7-15,45.4v136.9h-62.7V308.4h62.7v30.9
		c8.3-10.7,19-19.2,32-25.3c13-6,27.3-9.2,42.7-9.2C3401,304.9,3424.7,314,3443.1,332.8z"/>
	<path class="st0" d="M3758.6,451.2h-181.2c1.6,17.9,7.8,32,18.8,42.1c11,10.1,24.6,15.2,40.7,15.2c23.3,0,39.8-10.1,49.7-30h67.6
		c-7.2,23.9-20.8,43.4-41.2,58.8c-20.4,15.4-45.2,23-74.7,23c-23.9,0-45.2-5.4-64.2-15.9s-33.8-25.5-44.3-45
		c-10.5-19.5-15.9-41.8-15.9-67.1c0-25.7,5.1-48.1,15.7-67.6c10.5-19.5,25.1-34.2,43.9-44.8s40.5-15.7,64.9-15.7
		c23.5,0,44.8,5.1,63.3,15.2c18.6,10.1,33.1,24.6,43.4,43.2c10.3,18.6,15.4,40.1,15.4,64.2C3760.3,436,3759.7,444,3758.6,451.2z
		 M3695.5,409.1c-0.2-16.1-6-29.1-17.5-38.7c-11.4-9.6-25.3-14.5-41.6-14.5c-15.4,0-28.6,4.7-39.2,14.1c-10.5,9.4-17,22.4-19.5,39.2
		H3695.5z"/>
	<path class="st0" d="M3878.9,359.9v119.9c0,8.3,2,14.3,6,18.1c4,3.8,10.7,5.6,20.4,5.6h29.1v52.8H3895c-52.8,0-79.2-25.7-79.2-77
		V359.9h-29.5v-51.5h29.5v-61.3h63.1v61.3h55.5v51.5L3878.9,359.9L3878.9,359.9z"/>
	<path class="st0" d="M3983.9,268.4c-7.4-6.9-11-15.7-11-26.2c0-10.5,3.6-19.2,11-26.2s16.6-10.5,27.5-10.5c11,0,20.1,3.6,27.5,10.5
		c7.4,6.9,11,15.7,11,26.2c0,10.5-3.6,19.2-11,26.2c-7.4,6.9-16.6,10.5-27.5,10.5C4000.2,278.9,3991,275.3,3983.9,268.4z
		 M4042.3,308.4v247.9h-62.7V308.4H4042.3z"/>
	<path class="st0" d="M4485.5,332.8c18.6,18.6,28,44.8,28,78.1v145.4h-62.7V419.4c0-19.5-4.9-34.2-14.8-44.5
		c-9.8-10.3-23.3-15.4-40.3-15.4s-30.4,5.1-40.5,15.4s-15,25.1-15,44.5v136.9h-62.7V419.4c0-19.5-4.9-34.2-14.8-44.5
		s-23.3-15.4-40.3-15.4c-17.2,0-30.9,5.1-40.9,15.4s-15,25.1-15,44.5v136.9H4104V308.4h62.7v30c8.1-10.5,18.3-18.6,31.1-24.6
		c12.8-6,26.6-9,41.8-9c19.5,0,36.7,4,51.9,12.3s27.1,19.9,35.4,35.1c8.1-14.3,19.7-25.7,35.1-34.5c15.4-8.7,32-13,49.9-13
		C4442.3,304.9,4466.7,314,4485.5,332.8z"/>
</g>
</svg>
