<?xml version="1.0" encoding="utf-8"?>
<!-- Generator: Adobe Illustrator 24.1.2, SVG Export Plug-In . SVG Version: 6.00 Build 0)  -->
<svg version="1.1" id="katman_1" xmlns="http://www.w3.org/2000/svg" xmlns:xlink="http://www.w3.org/1999/xlink" x="0px" y="0px"
	 viewBox="0 0 806.6 698.8" style="enable-background:new 0 0 806.6 698.8;" xml:space="preserve">
<style type="text/css">
	.st0{fill:#F2F2F2;}
	.st1{fill:#9E616A;}
	.st2{fill:#3F3D56;}
	.st3{fill:#FFFFFF;}
	.st4{fill:#2F2E41;}
	.st5{fill:#FFB6B6;}
	.st6{fill:#FF4B4B;}
	.st7{fill:#FFB8B8;}
	.st8{fill:#E6E6E6;}
</style>
<path class="st0" d="M554.5,216c-0.1,44.1-35.9,79.8-80,79.7c-44.1-0.1-79.8-35.9-79.7-80s35.9-79.8,80-79.7l0,0
	c44,0,79.7,35.6,79.7,79.6C554.5,215.7,554.5,215.9,554.5,216z"/>
<path class="st1" d="M687.3,262.5l11.2-21.4c-10.1-12.2-43.1-26.9-43.1-26.9l-44.7-40.7c-1.5-5.7-7.3-9.1-13-7.6
	c-5.7,1.5-9.1,7.3-7.6,13c1,3.7,3.8,6.6,7.5,7.6l48.3,57.9L687.3,262.5z"/>
<path class="st2" d="M681.9,261l15.8,5c11.5,3.7,23.9,3.4,35.3-0.8l0,0c7-2.6,11.9-9,12.7-16.4l0,0c1-10.3-6.1-19.5-16.3-21.2
	c-14.9-2.4-34-3.6-40.8,4.5l-0.1,0.1L681.9,261z"/>
<circle class="st3" cx="567.9" cy="246.8" r="79.8"/>
<path class="st4" d="M535.3,215.6c-1.1,5.9-2.9,11.6-5.4,17.1c-14.1,29.8,26,20.1,40.4,20.1c15.7,0,30.7,8.2,28.4-28.4
	c-1-15.6-12.7-28.4-28.4-28.4C556.9,196,538.1,202,535.3,215.6z"/>
<circle class="st5" cx="568" cy="229.7" r="23.1"/>
<path class="st4" d="M552.3,206.2c12.5-7.6,28.7-3.7,36.3,8.8c2.6,4.3,3.9,9.2,3.9,14.2c-11.7,2.9-24.1,5.2-36.6,0.7l-3-7.2
	l-1.7,7.2c-3.8,1.6-7.6,2.9-11.5,0C539.3,220.3,544.2,211.3,552.3,206.2z"/>
<path class="st6" d="M630,299.9c-28.8,32.7-78.5,36.3-111.7,8.1l6.8-19.1c3.2-6.9,9.9-11.5,17.5-12l4.4-0.3l10.4-9
	c0,0,28-1,27.6-1.5l17,10.2l0-0.1l6.7,0.4c7.6,0.5,14.3,5.1,17.5,12L630,299.9z"/>
<path class="st0" d="M560.9,628.8l-2-27.6c-13-6.5-27.4-9.7-41.9-9.4c20.4,15.8,18.8,47.4,32.9,69c9,13.6,23.8,22.3,40,23.7l17,9.8
	c3.9-26-3.7-52.5-20.9-72.3c-4.8-5.5-10.3-10.3-16.4-14.4C565.9,618.3,560.9,628.8,560.9,628.8z"/>
<path class="st0" d="M43.9,139.8l-2-27.6c-13-6.5-27.4-9.7-41.9-9.4c20.4,15.8,18.8,47.4,32.9,69c9,13.6,23.8,22.3,40,23.7l17,9.8
	c3.9-26-3.7-52.5-20.9-72.3c-4.8-5.5-10.3-10.3-16.4-14.4C48.9,129.3,43.9,139.8,43.9,139.8z"/>
<polygon class="st1" points="635.3,685 622,685 615.7,633.8 635.3,633.8 "/>
<path class="st4" d="M638.7,697.9l-42.8,0v-0.5c0-9.2,7.5-16.6,16.6-16.6h0l7.8-5.9l14.6,5.9l3.7,0L638.7,697.9z"/>
<polygon class="st1" points="752.2,685 738.9,685 732.6,633.8 752.2,633.8 "/>
<path class="st4" d="M755.5,697.9l-42.8,0v-0.5c0-9.2,7.5-16.6,16.6-16.6h0l7.8-5.9l14.6,5.9l3.7,0L755.5,697.9z"/>
<path class="st4" d="M732,411.2l11.2,106c0,0,14.9,106.1,12.1,120.8c-2.8,14.6,0.7,16.7,0.7,16.7l-25.4-1.8c0,0,0.7-9.1-3.5-13.2
	s-2.1-16.7-2.1-16.7l-49.4-172.6l-30,90.6c0,0-4.9,99.7-5.6,101.1c-0.7,1.4-2.8,20.2-2.8,20.2h-25.8c0,0,3.5-11.2-1.4-14.6
	s-9.1-0.7-4.9-7s5.6-13.9,4.2-17.4c-1.4-3.5-1.4-17.4-1.4-17.4s2.1-188.3,13.9-194.5C633.7,404.9,732,411.2,732,411.2z"/>
<circle class="st1" cx="679.2" cy="169.2" r="27.4"/>
<path class="st2" d="M741.5,422.7c-53.1,11-123.6-7.9-123.6-7.9l18.8-81.4l-6.7-85.2c-0.8-10.4,5.1-20.2,14.4-23.7l12.8-4.8
	l10.5-15.1l30.1,1l12,15.8l9.5,5l20.6,10.9l0.1,0v0l-6.5,62.7l-3.9,37.8c0,0,11.8,42.5,9.4,48.1c-2.4,5.6-0.3,2.9,0.3,5.9
	c0.6,3,2.4,3.2,2.7,9.1C742.2,407.1,741.5,422.7,741.5,422.7z"/>
<path class="st4" d="M677.8,195.3c4.8,0,9.6-0.5,14.3-1.4c4.7-1.1,15-9.1,17.8-13.8l0,0c2.1-3.5,3.4-8.9,4-12.9
	c1.9-10.5-0.8-21.4-7.4-29.8c-1.3-1.7-3-3.1-4.9-4c-0.2-0.1-0.4-0.1-0.5-0.2c-2.9-0.7-5.4-2.2-7.4-4.3c-0.4-0.4-0.8-0.8-1.2-1.2
	c-2.2-1.8-4.9-3-7.7-3.6c-4.5-1.1-11,0.3-19.3,4.1c-4.1,1.9-8.7,1.4-12.3,0.7c-0.4-0.1-0.8,0.1-1.1,0.4c-1.5,1.4-3.4,2.3-5.5,2.3
	c-1.3,0.1-2.5,1.9-4.1,4.2c-0.3,0.5-0.8,1.1-1.1,1.5l-0.1-0.7l-0.7,0.8c-3.6,4.1-3.1,10.4,1,13.9c1.1,1,2.4,1.7,3.8,2
	c1.3,0.3,2.6,0.5,3.9,0.5c0.8,0.1,1.6,0.1,2.4,0.2c5.2,0.9,9.5,4.5,11.3,9.4c0.8,2,3,3,5,2.2c0.3-0.1,0.6-0.3,0.9-0.5
	c1.6-1.3,3.8-1.8,5.8-1.2c0.9,0.5,1.6,1.2,1.9,2.1c0.5,1,1.2,1.8,2.2,2.4c3.2,1.6,3.6,8.9,2.7,15c-1,5.9-3,10.2-5,10.4
	c-1.6,0.2-1.7,0.3-1.8,0.6l-0.1,0.2l0.2,0.2C676,195.3,676.9,195.4,677.8,195.3z"/>
<path class="st2" d="M567.9,327.7c-44.6,0-80.8-36.2-80.8-80.8s36.2-80.8,80.8-80.8s80.8,36.2,80.8,80.8l0,0
	C648.7,291.4,612.5,327.6,567.9,327.7z M567.9,168c-43.5,0-78.8,35.3-78.8,78.8s35.3,78.8,78.8,78.8s78.8-35.3,78.8-78.8l0,0
	C646.7,203.3,611.4,168,567.9,168z"/>
<circle class="st3" cx="288.9" cy="80.8" r="79.8"/>
<circle class="st7" cx="292.6" cy="62.9" r="26"/>
<path id="f183d98d-beca-4def-af6d-fbe16b93cf6a-5157" class="st4" d="M315.5,45.7c0,0,6.8-13-8.1-14.1c0,0-12.7-11.5-25.7-2.1
	c0,0-7.1,0-10.9,8c0,0-5.6-2.1-6.8,3.5c0,0-4.1,11.8,0,22.4s5.4,11.8,5.4,11.8s-2.9-13.2,13.4-14.3s31.2-11.4,32.5,1.6
	s2.8,7.1,2.8,7.1S331.1,51,315.5,45.7z"/>
<path class="st6" d="M348.9,133.9c-28.8,32.7-78.5,36.3-111.7,8.1l6.8-19.1c3.2-6.9,9.9-11.5,17.5-12l4.4-0.3l10.4-9
	c0,0,28-1,27.6-1.5l17,10.2l0-0.1l6.7,0.4c7.6,0.5,14.3,5.1,17.5,12L348.9,133.9z"/>
<path class="st2" d="M288.9,161.7c-44.6,0-80.8-36.2-80.8-80.8S244.2,0,288.9,0s80.8,36.2,80.8,80.8l0,0
	C369.7,125.4,333.5,161.6,288.9,161.7z M288.9,2c-43.5,0-78.8,35.3-78.8,78.8s35.3,78.8,78.8,78.8s78.8-35.3,78.8-78.8l0,0
	C367.7,37.3,332.4,2,288.9,2z"/>
<circle class="st3" cx="102.6" cy="206.8" r="79.8"/>
<path class="st4" d="M65.6,180.9c3.3-10.5,10.8-20.2,21.2-23.7c10.4-3.6,25.6,1.9,33.4,9.6c14.3,14.2,17.8,63.1,8,78.6
	c-2-0.1-8.7-0.2-10.7-0.3l-2.8-9.3v9.2c-3.1-0.1-6.3-0.2-9.5-0.2c-22.3-0.3-40.3-18.1-40.9-40.4C64,194.2,64.3,185,65.6,180.9z"/>
<circle class="st1" cx="101.4" cy="193" r="22.8"/>
<path class="st4" d="M81.7,173l26.2-13.1l0,0c10.9,4.9,18.3,15.4,19.3,27.3l0.7,7.8l-11-2.8l-1.2-10l-1.9,9.2l-5.1-1.3l0-15.5
	l-5.1,15.5L85.7,186L81.7,173z"/>
<path class="st6" d="M161.8,259.7C133,292.4,83.3,296,50.1,267.7l6.8-19.1c3.2-6.9,9.9-11.5,17.5-12l4.4-0.3l10.4-9
	c0,0,28-1,27.6-1.5l17,10.2l0-0.1l6.7,0.4c7.6,0.5,14.3,5.1,17.5,12L161.8,259.7z"/>
<path class="st2" d="M102.6,287.7c-44.6,0-80.8-36.2-80.8-80.8S57.9,126,102.6,126s80.8,36.2,80.8,80.8l0,0
	C183.3,251.4,147.2,287.6,102.6,287.7z M102.6,128c-43.5,0-78.8,35.3-78.8,78.8s35.3,78.8,78.8,78.8s78.8-35.3,78.8-78.8l0,0
	C181.3,163.3,146.1,128,102.6,128L102.6,128z"/>
<path class="st1" d="M641.6,288.2l-12.1-21c-15.7,2-45.8,22-45.8,22l-58.3,16c-5.6-1.8-11.6,1.3-13.4,6.9
	c-1.8,5.6,1.3,11.6,6.9,13.4c3.6,1.2,7.6,0.3,10.5-2.3l74.8-9.8L641.6,288.2z"/>
<path class="st2" d="M637.5,292l27.1-22.7l3.9-18.2c1.5-7.3-1.2-14.9-7.1-19.5l0,0c-8.1-6.3-19.8-5.3-26.6,2.4
	c-10,11.2-21.3,26.8-18.1,36.9l0,0.1L637.5,292z"/>
<path class="st8" d="M222.7,370.8H121.1c-5.7,0-10.3-4.6-10.3-10.3v-62.6c0-5.7,4.6-10.3,10.3-10.3h101.7c5.7,0,10.3,4.6,10.3,10.3
	v62.6C233,366.2,228.4,370.8,222.7,370.8z"/>
<path class="st3" d="M182.4,362.7h-54.1c-5.3,0-9.6-4.3-9.6-9.6v-47.8c0-5.3,4.3-9.6,9.6-9.6h87.4c5.3,0,9.6,4.3,9.6,9.6v14.5
	C225.2,343.5,206,362.7,182.4,362.7z"/>
<path class="st6" d="M206.9,321.8h-69.9c-1.3,0-2.3-1-2.3-2.3s1-2.3,2.3-2.3h69.9c1.3,0,2.3,1,2.3,2.3S208.1,321.8,206.9,321.8
	L206.9,321.8z"/>
<path class="st6" d="M147.9,330.8h-10.9c-1.3,0-2.3-1-2.3-2.3c0-1.3,1-2.3,2.3-2.3h10.9c1.3,0,2.3,1,2.3,2.3
	S149.2,330.8,147.9,330.8C147.9,330.8,147.9,330.8,147.9,330.8z"/>
<path class="st6" d="M167.3,339.9h-30.3c-1.3,0-2.3-1-2.3-2.3c0-1.3,1-2.3,2.3-2.3h30.3c1.3,0,2.3,1,2.3,2.3
	C169.5,338.8,168.5,339.9,167.3,339.9L167.3,339.9z"/>
<circle class="st2" cx="107.3" cy="286.4" r="21.5"/>
<path class="st8" d="M486.7,86.8H385.1c-5.7,0-10.3-4.6-10.3-10.3V13.9c0-5.7,4.6-10.3,10.3-10.3h101.7c5.7,0,10.3,4.6,10.3,10.3
	v62.6C497,82.2,492.4,86.8,486.7,86.8z"/>
<path class="st3" d="M446.4,78.7h-54.1c-5.3,0-9.6-4.3-9.6-9.6V21.3c0-5.3,4.3-9.6,9.6-9.6h87.4c5.3,0,9.6,4.3,9.6,9.6v14.5
	C489.2,59.5,470,78.7,446.4,78.7z"/>
<path class="st6" d="M470.9,37.8h-69.9c-1.3,0-2.3-1-2.3-2.3c0-1.3,1-2.3,2.3-2.3c0,0,0,0,0,0h69.9c1.3,0,2.3,1,2.3,2.3
	C473.2,36.8,472.1,37.8,470.9,37.8C470.9,37.8,470.9,37.8,470.9,37.8L470.9,37.8z"/>
<path class="st6" d="M411.9,46.8h-10.9c-1.3,0-2.3-1-2.3-2.3s1-2.3,2.3-2.3c0,0,0,0,0,0h10.9c1.3,0,2.3,1,2.3,2.3
	S413.2,46.8,411.9,46.8C411.9,46.8,411.9,46.8,411.9,46.8L411.9,46.8z"/>
<path class="st6" d="M431.3,55.9h-30.3c-1.3,0-2.3-1-2.3-2.3c0-1.3,1-2.3,2.3-2.3h30.3c1.3,0,2.3,1,2.3,2.3
	C433.5,54.8,432.5,55.9,431.3,55.9L431.3,55.9z"/>
<circle class="st2" cx="371.3" cy="77.4" r="21.5"/>
</svg>
