<?xml version="1.0" encoding="utf-8"?>
<!-- Generator: Adobe Illustrator 24.1.2, SVG Export Plug-In . SVG Version: 6.00 Build 0)  -->
<svg version="1.1" id="katman_1" xmlns="http://www.w3.org/2000/svg" xmlns:xlink="http://www.w3.org/1999/xlink" x="0px" y="0px"
	 viewBox="0 0 664.7 498.9" style="enable-background:new 0 0 664.7 498.9;" xml:space="preserve">
<style type="text/css">
	.st0{fill:#F2F2F2;}
	.st1{fill:#A0616A;}
	.st2{fill:#FF4B4B;}
	.st3{fill:#FFB6B6;}
	.st4{fill:#2F2E41;}
	.st5{fill:#3F3D56;}
	.st6{fill:#E6E6E6;}
	.st7{fill:#FFFFFF;}
</style>
<path class="st0" d="M607.3,444.8l1-22.4c10.4-5.6,22-8.5,33.8-8.6c-16.2,13.3-14.2,38.9-25.2,56.7c-7,11.2-18.8,18.6-32,20.1
	l-13.6,8.3c-3.8-21,1.9-42.7,15.4-59.2c3.8-4.5,8.2-8.6,13-12C603,436.3,607.3,444.8,607.3,444.8z"/>
<path class="st1" d="M141,245.3c-3.4-3.1-3.6-8.4-0.5-11.7c0.3-0.4,0.7-0.7,1.1-1l-9.3-28l14.8,4l6.6,26c2.6,3.8,1.5,9-2.3,11.6
	C148.1,248.3,143.8,248,141,245.3L141,245.3z"/>
<path class="st2" d="M167.9,93c2.5,1.4,17-2.1,19.9-1.1c-1.6,9.6,7,6-2.3,18.5s-27.9,50.3-32.1,64.3s0,33.9-0.7,40.6
	c-0.3,3.9-0.3,7.8,0.1,11.6c-5-0.1-9.9,1-15,0.3c-5.4-15.3-9.1-37.1-11.5-49.2s-2.6-7-1.4-13s1.4-1.6,0.2-7.4s3.6-13,8.1-17.1
	c1.9-5.5,4.4-10.7,6.3-16.1C153.2,112.4,154.2,105.4,167.9,93z"/>
<polygon class="st3" points="572.3,483.4 560,483.4 554.2,436 572.3,436 "/>
<path class="st4" d="M575.5,495.3l-39.7,0v-0.5c0-8.5,6.9-15.4,15.4-15.4h0l7.2-5.5l13.5,5.5l3.5,0L575.5,495.3z"/>
<polygon class="st3" points="515.2,483.4 502.9,483.4 497,436 515.2,436 "/>
<path class="st4" d="M518.3,495.3l-39.7,0v-0.5c0-8.5,6.9-15.4,15.4-15.4h0l7.2-5.5l13.5,5.5l3.5,0L518.3,495.3z"/>
<path class="st4" d="M509.9,224l80,2c15.2,8.3,15.4,26.1,10.4,47.3c0,0,1.7,12.6-1.7,16s-5,3.4-3.4,9.2s-7.2,15.5-6.1,16.6
	s3.6,7,3.6,7l-8.4,47.9c0,0-5.9,83.2-7.6,84.9s-3.4,0-1.7,4.2s3.4,2.5,1.7,4.2c-1.5,1.6-2.9,3.3-4.2,5h-20.3c0,0-1.5-8.4-1.5-9.2
	s-1.7-5.9-1.7-6.7s1.5-2.3,1.5-2.3c0.5-1.7,0.9-3.5,1-5.2c0-1.7,5-66.4,5-66.4l-10.1-84l-24.4,82.3c0,0,0,72.3-1.7,73.9
	s-1.7,0.8-0.8,4.2s4.2,2.5,1.7,5s-3.4-1.7-2.5,2.5l0.8,4.2l-25.2,0.4c0,0-3.4-7.1-1.7-9.6s1.6-1.8-0.5-6s-2.9-5-2.1-5.8
	s0.8-5.3,0.8-5.3l4.2-80.4c0,0,0.8-84.9,0.8-87.4c0.1-1.3-0.2-2.6-0.7-3.8v-3.4l3.2-12.1L509.9,224z"/>
<circle class="st3" cx="557.9" cy="32.8" r="24.9"/>
<path class="st5" d="M545.5,74.1c-5.4,3.2-8.6,9-10.4,15c-3.4,11-5.5,22.4-6.1,33.9l-1.9,34.5L503,230.9c20.8,17.6,99.2,4,99.2,4
	s2.4-0.8,0-3.2s-4.7-0.3-2.3-2.7s0.7,0.3-0.1-2.1s0-0.8,0.8-1.6s-6.2-8-6.2-8l6.4-42.1l8-85c-9.6-12-29-19.1-29-19.1l-5-9l-25,2
	L545.5,74.1z"/>
<path class="st4" d="M542.1,18.3c1,0,1.9,0.1,2.9,0.4c1.8,0.4,3.7,0.8,5.6,0.9c11.8,1.1,21.4,10.2,23.1,21.9
	c1.4-1.3,4.7-3.6,7.4-1.4l0,0c0,0,0.1,0.1,0.2,0c1.8-0.8,5-11.3,5.1-20.5c0.1-4.9-0.7-11.1-4.7-13.1l-0.2-0.1l-0.1-0.2
	c-0.3-1.1-3.2-3-8.3-4.4c-9.3-2.7-22.9-3-30.7,4.6c-0.6,2.6-2.8,3.3-4.7,3.9c-2.2,0.7-4,1.3-4.3,3.9c-0.2,3.8-0.2,7.5,0.1,11.3
	c0.7-2.3,2.2-4.3,4.1-5.7C538.8,18.7,540.4,18.2,542.1,18.3z"/>
<path class="st3" d="M495.8,155.6l40.6-26L516,102.4l-20.2,24.8l-62.9,3.9c-4.7-4.7-12.3-4.6-17,0.1c-4.7,4.7-4.6,12.3,0.1,17
	c4.4,4.4,11.4,4.6,16.2,0.6L495.8,155.6z"/>
<path class="st5" d="M574.1,93.3c2.4,14.3-42.1,41.5-42.1,41.5c0-3.3-26.6,21.9-27.8,19.1c-3.4-7.9-5.8-26.6-10.6-29.6
	c-2.7-1.7,16.4-17.8,16.4-17.8s10-10.1,23.1-22.8c7.4-7.4,18.1-10.6,28.4-8.3C561.6,75.5,571.8,79,574.1,93.3z"/>
<path class="st0" d="M528.9,257c0,15.3-2.5,30.4-7.6,44.8c-0.2,0.7-0.5,1.3-0.7,2c-10.3,27.9-29.4,51.7-54.5,67.8
	c-1.7,1.1-3.4,2.2-5.2,3.2c-20,11.6-42.7,17.9-65.8,18.2c-0.8,0-1.5,0-2.3,0c-1,0-2,0-2.9,0c-23.2-0.5-45.8-6.9-65.8-18.6
	c-1.8-1-3.5-2.1-5.2-3.2c-57.5-37.3-78.4-111.6-48.6-173.4c0.3-0.7,0.7-1.3,1-2c33.8-67.1,115.6-94.1,182.7-60.3
	c26,13.1,47.2,34.2,60.3,60.3c0.3,0.7,0.7,1.3,1,2C524.3,216.3,528.9,236.6,528.9,257z"/>
<path class="st6" d="M486.8,301.9v2H499v-2H486.8z M462.4,301.9v2h12.2v-2H462.4z M438.1,301.9v2h12.2v-2H438.1z M413.7,301.9v2
	h12.2v-2H413.7z M389.4,301.9v2h12.2v-2H389.4z M365,301.9v2h12.2v-2H365z M340.6,301.9v2h12.2v-2H340.6z M316.3,301.9v2h12.2v-2
	H316.3z M291.9,301.9v2h12.2v-2H291.9z M267.6,301.9v2h12.2v-2H267.6z M521.3,301.9h-10.2v2h9.5L521.3,301.9z"/>
<path class="st6" d="M511.2,287.9v2h12.2v-2H511.2z M486.8,287.9v2H499v-2H486.8z M462.4,287.9v2h12.2v-2H462.4z M438.1,287.9v2
	h12.2v-2H438.1z M413.7,287.9v2h12.2v-2H413.7z M389.4,287.9v2h12.2v-2H389.4z M365,287.9v2h12.2v-2H365z M340.6,287.9v2h12.2v-2
	H340.6z M316.3,287.9v2h12.2v-2H316.3z M291.9,287.9v2h12.2v-2H291.9z M267.6,287.9v2h12.2v-2H267.6z"/>
<path class="st6" d="M511.2,258.9v2h12.2v-2H511.2z M486.8,258.9v2H499v-2H486.8z M462.4,258.9v2h12.2v-2H462.4z M438.1,258.9v2
	h12.2v-2H438.1z M413.7,258.9v2h12.2v-2H413.7z M389.4,258.9v2h12.2v-2H389.4z M365,258.9v2h12.2v-2H365z M340.6,258.9v2h12.2v-2
	H340.6z M316.3,258.9v2h12.2v-2H316.3z M291.9,258.9v2h12.2v-2H291.9z M267.6,258.9v2h12.2v-2H267.6z"/>
<path class="st6" d="M511.2,238.9v2h12.2v-2H511.2z M486.8,238.9v2H499v-2H486.8z M462.4,238.9v2h12.2v-2H462.4z M438.1,238.9v2
	h12.2v-2H438.1z M413.7,238.9v2h12.2v-2H413.7z M389.4,238.9v2h12.2v-2H389.4z M365,238.9v2h12.2v-2H365z M340.6,238.9v2h12.2v-2
	H340.6z M316.3,238.9v2h12.2v-2H316.3z M291.9,238.9v2h12.2v-2H291.9z M267.6,238.9v2h12.2v-2H267.6z"/>
<path class="st6" d="M514.4,195.9h-3.2v2h4.2C515,197.2,514.7,196.5,514.4,195.9z M486.8,195.9v2H499v-2H486.8z M462.4,195.9v2h12.2
	v-2H462.4z M438.1,195.9v2h12.2v-2H438.1z M413.7,195.9v2h12.2v-2H413.7z M389.4,195.9v2h12.2v-2H389.4z M365,195.9v2h12.2v-2H365z
	 M340.6,195.9v2h12.2v-2H340.6z M316.3,195.9v2h12.2v-2H316.3z M291.9,195.9v2h12.2v-2H291.9z M271.4,195.9c-0.3,0.7-0.7,1.3-1,2
	h9.4v-2H271.4z"/>
<path class="st5" d="M466.2,202.6v169c-1.7,1.1-3.4,2.2-5.2,3.2V202.6L466.2,202.6z"/>
<path class="st5" d="M395.2,258.6V393c-0.8,0-1.5,0-2.3,0c-1,0-2,0-2.9,0V258.6H395.2z"/>
<path class="st5" d="M324.2,202.6v171.8c-1.8-1-3.5-2.1-5.2-3.2V202.6L324.2,202.6z"/>
<path class="st0" d="M69.4,432.7l-2-27.6c-13-6.5-27.4-9.7-41.9-9.4c20.4,15.8,18.8,47.4,32.9,69c9,13.6,23.8,22.3,40,23.7l17,9.8
	c3.9-26-3.7-52.5-20.9-72.3c-4.8-5.5-10.3-10.3-16.4-14.4C74.4,422.1,69.4,432.7,69.4,432.7z"/>
<circle class="st2" cx="462.9" cy="197" r="19"/>
<path class="st7" d="M472.6,189.1c-0.6-0.6-1.5-0.6-2.1,0c-4,3.2-7.7,6.9-10.8,11c-0.8-1.5-1.5-3-2.3-4.5c-0.9-1.7-3.5-0.2-2.6,1.5
	c1.1,2.2,2.2,4.3,3.4,6.5c0.4,0.7,1.4,0.9,2.1,0.5c0.2-0.1,0.4-0.3,0.5-0.5c3.3-4.7,7.3-8.9,11.8-12.5
	C473.2,190.7,473.2,189.7,472.6,189.1z"/>
<circle class="st2" cx="392.9" cy="253" r="19"/>
<path class="st7" d="M402.6,245.1c-0.6-0.6-1.5-0.6-2.1,0c-4,3.2-7.7,6.9-10.8,11c-0.8-1.5-1.5-3-2.3-4.5c-0.9-1.7-3.5-0.2-2.6,1.5
	c1.1,2.2,2.2,4.3,3.4,6.5c0.4,0.7,1.4,0.9,2.1,0.5c0.2-0.1,0.4-0.3,0.5-0.5c3.3-4.7,7.3-8.9,11.8-12.5
	C403.2,246.7,403.2,245.7,402.6,245.1z"/>
<circle class="st2" cx="321.9" cy="201" r="19"/>
<path class="st7" d="M331.6,193.1c-0.6-0.6-1.5-0.6-2.1,0c-4,3.2-7.7,6.9-10.8,11c-0.8-1.5-1.5-3-2.3-4.5c-0.9-1.7-3.5-0.2-2.6,1.5
	c1.1,2.2,2.2,4.3,3.4,6.5c0.4,0.7,1.4,0.9,2.1,0.5c0.2-0.1,0.4-0.3,0.5-0.5c3.3-4.7,7.3-8.9,11.8-12.5
	C332.2,194.7,332.2,193.7,331.6,193.1z"/>
<path class="st3" d="M594.4,187.5l12.5-46.6l-33.4-6.3l1.8,32l-43.9,45.2c-6.6-0.3-12.2,4.9-12.5,11.5s4.9,12.2,11.5,12.5
	c6.2,0.3,11.6-4.3,12.4-10.4L594.4,187.5z"/>
<path class="st5" d="M610.3,88.8c11.3,9-3.2,59.1-3.2,59.1c-2.3-2.5-4.9,34.1-7.6,32.8c-7.8-3.5-22.2-15.7-27.7-14.7
	c-3.2,0.6,0.2-24.2,0.2-24.2s0.6-14.2,1.8-32.4c0.5-10.5,6.3-20,15.4-25.2C589,84,598.9,79.8,610.3,88.8z"/>
<polygon class="st1" points="218.4,193.3 232.2,254.7 144,249.2 168,188.9 "/>
<polygon class="st1" points="203.7,476.5 213.6,476.5 218.3,438.3 203.7,438.3 "/>
<path class="st4" d="M200.4,471.6l15.6-0.9v6.7l14.9,10.3c1.9,1.3,2.4,3.9,1.1,5.8c-0.8,1.1-2.1,1.8-3.4,1.8h-18.6l-3.2-6.6
	l-1.3,6.6h-7L200.4,471.6z"/>
<polygon class="st1" points="110.2,471.6 119.9,473.7 132.6,437.4 118.3,434.3 "/>
<path class="st4" d="M107.9,466.1l15.5,2.4l-1.4,6.6l12.4,13.2c1.6,1.7,1.5,4.3-0.2,5.9c-1,0.9-2.4,1.3-3.8,1l-18.2-3.9l-1.7-7.2
	l-2.6,6.2l-6.9-1.5L107.9,466.1z"/>
<path class="st4" d="M234.4,306c-6.9,38.2-8.7,54.7-8.7,54.7s5.2,6.1,1.7,9.5s0,10.4,0,10.4l-7.8,84.2l-6.3-1l-15.1-2.4l-5.5-0.9
	l3.5-79c0,0-3.5-6.9-1.7-8.7c1.7-1.7-1.7-12.1-1.7-12.1l-4.3-82.4l-26.9,90.2c0,0,2.6,3.5,0,6.1c-2.6,2.6-7.8,15.6-7.8,15.6l-16,56
	l-1.4,4.8l-8.3-1.6l-9.1-1.7l-1.7-0.3l-3-0.6l-1.9-0.4l-0.7-0.1l-3.1-0.6l1-4.2l0.5-2.2l13.5-60.1l0.3-1.4l0.3-1.5
	c0,0-1.7-4.3,0.9-6.9c1.5-1.6,2.2-3.9,1.7-6.1c-0.1-0.1-0.2-0.2-0.2-0.3c-0.3-0.4-0.5-0.9-0.6-1.4c-0.2-1.1,0-2.6,1.7-4.4
	c0.5-0.5,0.9-1.1,1.2-1.8c2.6-5,4-15.6,4-15.6s2.3-83.8,10-96.6c0.4-0.7,8.6-13.5,9-13.8c8.7-5.2,76.3,2,76.3,2s4.1,11,4.3,12.1
	C233.4,250,240.3,273.6,234.4,306z"/>
<path class="st2" d="M213.9,104c0,0,1.5-7.6-12.6-21.6c-7.4-2.5-20.3-1-24.8,0c-20.7,27.3-17,22.5-22.3,37.7
	c-1.4,4-2.1,7.7-1.5,10.8c2.5,12.4,6.5,76,5.7,79.3s-6.6,7.4-0.8,7.4s80.4-1.3,78.7-3.8S213.9,104,213.9,104z"/>
<path class="st1" d="M302.5,204.9c-4.3,1.7-9.1-0.5-10.8-4.7c-0.2-0.5-0.3-0.9-0.4-1.4l-29.2-4.2l10.2-11.5l26.2,5.7
	c4.6-0.6,8.8,2.7,9.3,7.2C308.3,199.9,306.1,203.5,302.5,204.9L302.5,204.9z"/>
<path class="st2" d="M178.8,99.2c2.4-1.6,5-2.3,7.2-4.4c7.9,5.7,8.5-3.6,15.6,10.3s32.6,47.4,43.3,57.4s30.4,15.2,36.1,18.7
	c3.3,2,6.8,3.7,10.4,5.1c-2.3,4.4-3.5,9.3-6.4,13.6c-16.1-2-37.3-8.4-49.2-11.6s-7.4-0.8-12.3-4.5s-0.8-2-6.5-3.5s-10-9-11.7-14.9
	c-4.1-4.2-7.6-8.7-11.6-12.8C188.9,134.7,183.7,116.9,178.8,99.2z"/>
<circle class="st1" cx="197.2" cy="47.9" r="23.9"/>
<path class="st4" d="M213.2,91.6c-1.1-1.6-9.6-17.7-12.1-23.8c-0.3,1.3-0.4,2.6-0.5,4l0,0.5l-0.5,0.1c-0.7,0.1-18.3,2.2-27.5-8.2
	c-5.4-6.2-6.7-15.4-3.7-27.4c-0.5-0.1-1.1-0.3-1.5-0.6c-1.6-1.1-2.6-2.9-2.8-4.8l-0.5,0.1c-16.3-7.9-2.3-31.1,12.6-19.6
	c1.3-0.3,2.7-0.2,3.9,0.2c2.5,1,4.2,3.3,4.5,6c7.7-4,17.9-3.4,23.1-0.4c2.2,1.3,3.5,2.9,3.7,4.7c6.2,0.3,12.9,6.4,12.9,15v0.6h-0.6
	c-5.1,0.1-9.7,3-12,7.6c-3.1,5.6-2.9,12.5,0.5,17.9c3.7,5.7,5,12.7,3.5,19.3l-2.2,9.8L213.2,91.6z"/>
<circle class="st6" cx="321.3" cy="399.2" r="10.6"/>
<circle class="st6" cx="392.3" cy="410.2" r="10.6"/>
<circle class="st6" cx="463.3" cy="397.2" r="10.6"/>
</svg>
