<?xml version="1.0" encoding="utf-8"?>
<!-- Generator: Adobe Illustrator 24.1.2, SVG Export Plug-In . SVG Version: 6.00 Build 0)  -->
<svg version="1.1" id="katman_1" xmlns="http://www.w3.org/2000/svg" xmlns:xlink="http://www.w3.org/1999/xlink" x="0px" y="0px"
	 viewBox="0 0 956 639.2" style="enable-background:new 0 0 956 639.2;" xml:space="preserve">
<style type="text/css">
	.st0{fill:#E6E6E6;}
	.st1{fill:#FFFFFF;}
	.st2{fill:#FF4B4B;}
	.st3{fill:#FFB8B8;}
	.st4{fill:#2F2E41;}
	.st5{fill:#CCCCCC;}
</style>
<rect x="0.3" y="0.4" class="st0" width="703.6" height="450.6"/>
<rect x="20.4" y="56.9" class="st1" width="663.3" height="171.8"/>
<rect x="185.4" y="81.7" class="st0" width="140.3" height="8.1"/>
<rect x="185.4" y="111.1" class="st2" width="216.6" height="8.1"/>
<rect x="185.4" y="138.8" class="st0" width="176.5" height="8.1"/>
<rect x="185.4" y="166.3" class="st0" width="103.1" height="8.1"/>
<rect x="185.4" y="193.9" class="st0" width="155.5" height="8.1"/>
<rect x="121.5" y="78.9" class="st0" width="17.2" height="17.2"/>
<rect x="121.5" y="106.5" class="st2" width="17.2" height="17.2"/>
<rect x="121.5" y="134.2" class="st0" width="17.2" height="17.2"/>
<rect x="121.5" y="161.9" class="st0" width="17.2" height="17.2"/>
<rect x="121.5" y="189.6" class="st0" width="17.2" height="17.2"/>
<rect x="533.7" y="118" class="st0" width="57.3" height="57.3"/>
<rect x="20.4" y="252.5" class="st1" width="663.3" height="171.8"/>
<rect x="151.1" y="267.8" class="st0" width="17.2" height="17.2"/>
<rect x="121.5" y="267.8" class="st2" width="17.2" height="17.2"/>
<path class="st0" d="M412.7,305.4c-18.3-30.9-58.2-41.2-89.1-22.9c-6,3.5-11.4,8-15.9,13.2l-4.2-3.7c25.6-29.4,70.2-32.4,99.6-6.8
	c5.7,5,10.5,10.8,14.4,17.3L412.7,305.4z"/>
<path class="st2" d="M415.3,377.8l-4.6-3.1c13.9-20.8,14.7-47.8,2-69.3l4.8-2.8C431.3,326,430.5,355.2,415.3,377.8L415.3,377.8z"/>
<path class="st2" d="M304.1,385.5c-23.8-26.6-24-66.7-0.6-93.5l4.2,3.7c-21.6,24.7-21.4,61.7,0.5,86.2L304.1,385.5z"/>
<path class="st2" d="M356.7,409.1c-20.1,0-39.2-8.6-52.6-23.5l4.1-3.7c24,26.8,65.1,29,91.8,5.1c4-3.6,7.6-7.7,10.6-12.2l4.6,3.1
	C402.2,397.3,380.2,409.1,356.7,409.1z"/>
<rect x="533.7" y="305" class="st0" width="57.3" height="57.3"/>
<rect x="119.1" y="342.2" class="st0" width="57.3" height="57.3"/>
<rect class="st2" width="703.6" height="29.9"/>
<circle class="st1" cx="22.2" cy="15.3" r="5.5"/>
<circle class="st1" cx="43.2" cy="15.3" r="5.5"/>
<circle class="st1" cx="64.3" cy="15.3" r="5.5"/>
<polygon class="st3" points="817.2,623.7 831.4,623.7 838.2,568.8 817.2,568.8 "/>
<path class="st4" d="M813.5,619.1l28.1,0h0c9.9,0,17.9,8,17.9,17.9v0.6l-45.9,0L813.5,619.1z"/>
<polygon class="st3" points="781.7,569.8 792.2,579.4 834.3,543.4 818.8,529.2 "/>
<path class="st4" d="M782.2,563.9l20.7,18.9l0,0c7.3,6.7,7.8,18,1.1,25.3l-0.4,0.4l-33.9-31L782.2,563.9z"/>
<polygon class="st4" points="839.6,430.8 835.5,511.5 845.6,599.3 815.3,603.4 796.2,492.3 790.1,416.6 "/>
<path class="st4" d="M887,401.5c0,0,12.1,79.7-13.1,106s-59.5,72.7-59.5,72.7l-24.2-30.3l61.6-65.6l-12.1-44.4l-49.5-23.2l8.1-55.5
	l72.7-1L887,401.5z"/>
<circle class="st3" cx="831.4" cy="192.1" r="24.7"/>
<polygon class="st5" points="851.9,227.2 855.7,233 865.8,261.2 857.7,371.2 810.3,372.2 804.2,246.1 816.9,230.2 "/>
<path class="st4" d="M785.1,249.1l-8.1-1c0,0-2,1-3,8.1c-1,7.1-13.1,69.6-13.1,69.6l16.1,76.7l18.2-24.2L784,335.9l11.1-42.4
	L785.1,249.1z"/>
<polygon class="st4" points="888,248.1 894.1,248.1 909.2,329.8 895.1,393.4 880.9,370.2 885,345 883,322.8 875.9,309.7 "/>
<path class="st4" d="M846,192.1l-4.5-1.1c0,0-3.4-19.1-11.2-16.9s-28.1,4.5-28.1-4.5s19.1-16.9,30.3-15.7s25.6,4.9,29.2,21.3
	c5.8,26.4-12,33.1-12,33.1l0.3-1C851.7,201.9,850.2,196,846,192.1z"/>
<path class="st4" d="M778,248.1l32.3-13.1l7.6-5.6l22.7,100.4l15.1-45.4l-4.5-58l41.9,21.7l-14.1,68.6l-2,26.2l6.1,21.2
	c0,0,21.2,15.1,14.1,31.3s-15.1,17.2-15.1,17.2s-34.3-32.3-36.3-40.4s-5-22.2-5-22.2s-17.2,64.6-37.3,63.6S783,391.4,783,391.4
	l5-22.2l8.1-23.2l-4-38.4L778,248.1z"/>
</svg>
